<?xml version="1.0" encoding="UTF-8"?>
<!-- Created with Inkscape (http://www.inkscape.org/) -->
<svg width="56.28mm" height="56.28mm" version="1.1" viewBox="0 0 56.28 56.28" xml:space="preserve" xmlns="http://www.w3.org/2000/svg"><g><rect y="-8.8818e-16" width="56.28" height="56.28" ry="3.1633"/><path d="m48.06 28.535c-2.8882 3.0533-10.641 1.5322-13.983-1.6292-5.8959-5.5768 0.03569-14.817 9.3726-14.182 4.6568 0.31665 7.5544 3.462 8.0623 6.9627 0.3448 2.3727-0.1643 4.4256-1.3116 5.6386zm-5.2069-9.3178c-1.4241 0.04211-2.568 0.84886-2.5416 1.7985 0.02465 0.94956 1.2133 1.6939 2.6376 1.6543 1.4241-0.04212 2.568-0.84886 2.5416-1.7984-0.02465-0.94963-1.2133-1.694-2.6374-1.6547zm-22.639 9.7217c-8.3131 4.0703-19.426-6.2113-13.526-12.448 1.1077-1.171 6.9724-4.9139 9.4411-4.9825 8.8337-0.24552 15.747 11.032 8.2195 14.718zm-3.1548-9.0048c-1.3681 0.03978-2.9462 0.85948-3.5066 1.8252-0.5603 0.96596 0.58054 1.7116 2.5356 1.6572 1.9549-0.05674 3.533-0.87583 3.5067-1.8251-0.02465-0.94963-1.1675-1.6953-2.5357-1.6573z" fill="#e6f6f5" stroke-width="4.8956"/><path d="m0 53.635s2.2646 1.4303 4.2908 0.95351c2.0262-0.47676 9.1775-11.8 23.361-11.8 14.183 0 26.698 13.23 26.698 13.23l-5.2443 0.23838s-13.632-7.7947-18.593-7.3897c-5.8403 0.47676-11.836 7.3576-17.7 7.3301l-10.608 0.17878c-2.1454-0.95351-2.205-2.7413-2.205-2.7413z" fill="#e6f6f5"/></g></svg>
